<?xml version="1.0" encoding="UTF-8"?>
<!DOCTYPE svg PUBLIC "-//W3C//DTD SVG 1.1//EN" "http://www.w3.org/Graphics/SVG/1.1/DTD/svg11.dtd">
<!-- Creator: CorelDRAW X8 -->
<svg xmlns="http://www.w3.org/2000/svg" xml:space="preserve" width="1.51665in" height="1.51667in" version="1.1" style="shape-rendering:geometricPrecision; text-rendering:geometricPrecision; image-rendering:optimizeQuality; fill-rule:evenodd; clip-rule:evenodd"
viewBox="0 0 112 112"
 xmlns:xlink="http://www.w3.org/1999/xlink">
 <defs>
  <style type="text/css">
   <![CDATA[
    .fil1 {fill:#FEFEFE}
    .fil0 {fill:#EE0031}
   ]]>
  </style>
 </defs>
 <g id="Layer_x0020_1">
  <metadata id="CorelCorpID_0Corel-Layer"/>
  <path class="fil0" d="M18 0l75 0c10,0 19,8 19,18l0 75c0,10 -9,19 -19,19l-75 0c-10,0 -18,-9 -18,-19l0 -75c0,-10 8,-18 18,-18zm55 56c0,1 0,1 0,2 0,0 0,1 0,1 0,0 0,0 -1,0 0,1 0,1 0,1l-12 0 0 13c0,0 0,0 0,0 -1,1 -1,1 -1,1 0,0 -1,0 -1,0 -1,0 -1,0 -2,0 -1,0 -2,0 -2,0 -1,0 -1,0 -1,0 -1,0 -1,0 -1,-1 0,0 0,0 0,0l0 -13 -12 0c0,0 -1,0 -1,-1 0,0 0,0 0,0 0,0 -1,-1 -1,-1 0,-1 0,-1 0,-2 0,-1 0,-1 0,-2 0,0 1,-1 1,-1 0,0 0,-1 0,-1 0,0 1,0 1,0l12 0 0 -13c0,0 0,0 0,-1 0,0 0,0 1,0 0,0 0,0 1,-1 0,0 1,0 2,0 1,0 1,0 2,0 0,1 1,1 1,1 0,0 0,0 1,0 0,1 0,1 0,1l0 13 12 0c0,0 0,0 0,0 1,0 1,1 1,1 0,0 0,1 0,1 0,1 0,1 0,2z"/>
  <path class="fil1" d="M73 56c0,1 0,1 0,2 0,0 0,1 0,1 0,0 0,0 -1,0 0,1 0,1 0,1l-12 0 0 13c0,0 0,0 0,0 -1,1 -1,1 -1,1 0,0 -1,0 -1,0 -1,0 -1,0 -2,0 -1,0 -2,0 -2,0 -1,0 -1,0 -1,0 -1,0 -1,0 -1,-1 0,0 0,0 0,0l0 -13 -12 0c0,0 -1,0 -1,-1 0,0 0,0 0,0 0,0 -1,-1 -1,-1 0,-1 0,-1 0,-2 0,-1 0,-1 0,-2 0,0 1,-1 1,-1 0,0 0,-1 0,-1 0,0 1,0 1,0l12 0 0 -13c0,0 0,0 0,-1 0,0 0,0 1,0 0,0 0,0 1,-1 0,0 1,0 2,0 1,0 1,0 2,0 0,1 1,1 1,1 0,0 0,0 1,0 0,1 0,1 0,1l0 13 12 0c0,0 0,0 0,0 1,0 1,1 1,1 0,0 0,1 0,1 0,1 0,1 0,2z"/>
 </g>
</svg>
