<?xml version="1.0" encoding="UTF-8"?>
<!DOCTYPE svg PUBLIC "-//W3C//DTD SVG 1.1//EN" "http://www.w3.org/Graphics/SVG/1.1/DTD/svg11.dtd">
<!-- Creator: CorelDRAW X8 -->
<svg xmlns="http://www.w3.org/2000/svg" xml:space="preserve" width="1.42472in" height="1.58904in" version="1.1" style="shape-rendering:geometricPrecision; text-rendering:geometricPrecision; image-rendering:optimizeQuality; fill-rule:evenodd; clip-rule:evenodd"
viewBox="0 0 115 128"
 xmlns:xlink="http://www.w3.org/1999/xlink">
 <defs>
  <style type="text/css">
   <![CDATA[
    .fil0 {fill:#EE0031}
   ]]>
  </style>
 </defs>
 <g id="Layer_x0020_1">
  <metadata id="CorelCorpID_0Corel-Layer"/>
  <g id="_211940840576">
   <path class="fil0" d="M39 27c13,-3 24,6 26,17 2,13 -7,23 -17,25 -29,6 -37,-37 -9,-42zm5 101l10 -15c11,-15 22,-32 29,-50 2,-4 3,-8 3,-11 -13,-3 -24,-15 -24,-30 0,-4 1,-8 3,-12 -18,-9 -41,-8 -57,12 -19,25 -1,52 13,75l16 24c2,2 5,6 7,7z"/>
   <path class="fil0" d="M93 0c12,0 22,10 22,22 0,12 -10,22 -22,22 -12,0 -22,-10 -22,-22 0,-12 10,-22 22,-22zm13 25l-10 0 0 10 -6 0 0 -10 -10 0 0 -6 10 0 0 -10 6 0 0 10 10 0 0 6z"/>
  </g>
 </g>
</svg>
