<?xml version="1.0" encoding="UTF-8"?>
<!DOCTYPE svg PUBLIC "-//W3C//DTD SVG 1.1//EN" "http://www.w3.org/Graphics/SVG/1.1/DTD/svg11.dtd">
<!-- Creator: CorelDRAW X8 -->
<svg xmlns="http://www.w3.org/2000/svg" xml:space="preserve" width="2.46889in" height="2.46889in" version="1.1" style="shape-rendering:geometricPrecision; text-rendering:geometricPrecision; image-rendering:optimizeQuality; fill-rule:evenodd; clip-rule:evenodd"
viewBox="0 0 294 294"
 xmlns:xlink="http://www.w3.org/1999/xlink">
 <defs>
  <style type="text/css">
   <![CDATA[
    .fil0 {fill:#E6E7E8}
    .fil1 {fill:#E6E7E8;fill-rule:nonzero}
   ]]>
  </style>
 </defs>
 <g id="Layer_x0020_1">
  <metadata id="CorelCorpID_0Corel-Layer"/>
  <g id="_212055789008">
   <path class="fil0" d="M48 0l197 0c27,0 49,22 49,48l0 197c0,27 -22,49 -49,49l-197 0c-26,0 -48,-22 -48,-49l0 -197c0,-26 22,-48 48,-48zm8 17l181 0c22,0 40,18 40,39l0 181c0,22 -18,40 -40,40l-181 0c-21,0 -39,-18 -39,-40l0 -181c0,-21 18,-39 39,-39z"/>
   <path class="fil1" d="M193 147c0,2 0,3 0,5 0,1 -1,2 -1,3 0,1 -1,1 -1,2 -1,0 -2,0 -2,0l-32 0 0 34c0,1 0,2 0,2 0,1 -1,1 -2,1 -1,1 -2,1 -3,1 -1,0 -3,1 -5,1 -2,0 -4,-1 -5,-1 -2,0 -3,0 -3,-1 -1,0 -2,0 -2,-1 -1,0 -1,-1 -1,-2l0 -34 -31 0c-1,0 -1,0 -2,0 0,-1 -1,-1 -1,-2 0,-1 -1,-2 -1,-3 0,-2 0,-3 0,-5 0,-2 0,-3 0,-5 0,-1 0,-2 1,-3 0,-1 1,-1 1,-2 1,0 1,0 2,0l31 0 0 -34c0,-1 0,-2 1,-2 0,-1 1,-1 2,-2 0,0 1,0 3,0 1,-1 3,-1 5,-1 2,0 4,0 5,1 1,0 2,0 3,0 1,1 2,1 2,2 0,0 0,1 0,2l0 34 32 0c1,0 1,0 2,0 0,1 1,1 1,2 0,1 1,2 1,3 0,2 0,3 0,5z"/>
  </g>
 </g>
</svg>
