<?xml version="1.0" encoding="UTF-8"?>
<!DOCTYPE svg PUBLIC "-//W3C//DTD SVG 1.1//EN" "http://www.w3.org/Graphics/SVG/1.1/DTD/svg11.dtd">
<!-- Creator: CorelDRAW X8 -->
<svg xmlns="http://www.w3.org/2000/svg" xml:space="preserve" width="2.87803in" height="2.87803in" version="1.1" style="shape-rendering:geometricPrecision; text-rendering:geometricPrecision; image-rendering:optimizeQuality; fill-rule:evenodd; clip-rule:evenodd"
viewBox="0 0 864 864"
 xmlns:xlink="http://www.w3.org/1999/xlink">
 <defs>
  <style type="text/css">
   <![CDATA[
    .fil0 {fill:#D2D3D5}
   ]]>
  </style>
 </defs>
 <g id="Layer_x0020_1">
  <metadata id="CorelCorpID_0Corel-Layer"/>
  <path class="fil0" d="M432 0c239,0 432,193 432,432 0,239 -193,432 -432,432 -239,0 -432,-193 -432,-432 0,-239 193,-432 432,-432zm197 436l-177 -178 -47 47 97 98 -267 0 0 66 267 0 -97 97 47 48 177 -178zm-197 -373c204,0 369,165 369,369 0,204 -165,369 -369,369 -204,0 -369,-165 -369,-369 0,-204 165,-369 369,-369z"/>
 </g>
</svg>
