<?xml version="1.0" encoding="UTF-8"?>
<!DOCTYPE svg PUBLIC "-//W3C//DTD SVG 1.1//EN" "http://www.w3.org/Graphics/SVG/1.1/DTD/svg11.dtd">
<!-- Creator: CorelDRAW X8 -->
<svg xmlns="http://www.w3.org/2000/svg" xml:space="preserve" width="2.87803in" height="2.87803in" version="1.1" style="shape-rendering:geometricPrecision; text-rendering:geometricPrecision; image-rendering:optimizeQuality; fill-rule:evenodd; clip-rule:evenodd"
viewBox="0 0 409 409"
 xmlns:xlink="http://www.w3.org/1999/xlink">
 <defs>
  <style type="text/css">
   <![CDATA[
    .fil0 {fill:#D2D3D5}
   ]]>
  </style>
 </defs>
 <g id="Layer_x0020_1">
  <metadata id="CorelCorpID_0Corel-Layer"/>
  <path class="fil0" d="M205 0c113,0 204,92 204,205 0,113 -91,204 -204,204 -113,0 -205,-91 -205,-204 0,-113 92,-205 205,-205zm-94 206l84 -84 23 23 -46 46 126 0 0 31 -126 0 46 46 -23 23 -84 -85zm94 -176c96,0 175,78 175,175 0,96 -79,175 -175,175 -97,0 -175,-79 -175,-175 0,-97 78,-175 175,-175z"/>
 </g>
</svg>
