<?xml version="1.0" encoding="UTF-8"?>
<!DOCTYPE svg PUBLIC "-//W3C//DTD SVG 1.1//EN" "http://www.w3.org/Graphics/SVG/1.1/DTD/svg11.dtd">
<!-- Creator: CorelDRAW X8 -->
<svg xmlns="http://www.w3.org/2000/svg" xml:space="preserve" width="5.3373in" height="4.37471in" version="1.1" style="shape-rendering:geometricPrecision; text-rendering:geometricPrecision; image-rendering:optimizeQuality; fill-rule:evenodd; clip-rule:evenodd"
viewBox="0 0 1314 1077"
 xmlns:xlink="http://www.w3.org/1999/xlink">
 <defs>
  <style type="text/css">
   <![CDATA[
    .fil0 {fill:#7C7F7A}
   ]]>
  </style>
 </defs>
 <g id="Layer_x0020_1">
  <metadata id="CorelCorpID_0Corel-Layer"/>
  <g id="_211940838592">
   <path class="fil0" d="M319 761c14,53 11,66 75,65l584 0c61,0 58,-22 68,-74 2,-12 6,-26 9,-40 -28,5 -56,7 -83,6l-7 25 -569 3 -100 -364 304 -1c-5,-27 -6,-54 -5,-80l-316 0c-25,-32 -21,-88 -41,-125 -18,-35 -107,-21 -152,-21 -24,0 -57,-5 -74,11 -15,13 -17,44 1,59 37,30 118,-3 159,15l147 521zm577 132c51,0 93,41 93,92 0,51 -42,92 -93,92 -51,0 -92,-41 -92,-92 0,-51 41,-92 92,-92zm0 60c18,0 33,14 33,32 0,18 -15,32 -33,32 -17,0 -32,-14 -32,-32 0,-18 15,-32 32,-32zm-420 -60c51,0 93,41 93,92 0,51 -42,92 -93,92 -51,0 -92,-41 -92,-92 0,-51 41,-92 92,-92zm0 60c18,0 33,14 33,32 0,18 -15,32 -33,32 -17,0 -32,-14 -32,-32 0,-18 15,-32 32,-32z"/>
   <path class="fil0" d="M989 0c180,0 325,146 325,325 0,180 -145,325 -325,325 -179,0 -325,-145 -325,-325 0,-179 146,-325 325,-325z"/>
  </g>
 </g>
</svg>
