<?xml version="1.0" encoding="UTF-8"?>
<!DOCTYPE svg PUBLIC "-//W3C//DTD SVG 1.1//EN" "http://www.w3.org/Graphics/SVG/1.1/DTD/svg11.dtd">
<!-- Creator: CorelDRAW X8 -->
<svg xmlns="http://www.w3.org/2000/svg" xml:space="preserve" width="2.81135in" height="2.30432in" version="1.1" style="shape-rendering:geometricPrecision; text-rendering:geometricPrecision; image-rendering:optimizeQuality; fill-rule:evenodd; clip-rule:evenodd"
viewBox="0 0 371 304"
 xmlns:xlink="http://www.w3.org/1999/xlink">
 <defs>
  <style type="text/css">
   <![CDATA[
    .fil0 {fill:#7C7F7A}
    .fil1 {fill:#EE0031}
   ]]>
  </style>
 </defs>
 <g id="Layer_x0020_1">
  <metadata id="CorelCorpID_0Corel-Layer"/>
  <g id="_211983453568">
   <path class="fil0" d="M90 215c4,14 3,18 21,18l165 0c17,0 16,-6 19,-21 1,-3 2,-7 2,-11 -7,1 -15,2 -23,1l-2 8 -160 0 -28 -102 85 0c-1,-8 -2,-16 -1,-23l-89 0c-7,-9 -6,-25 -12,-35 -5,-10 -30,-6 -43,-6 -7,0 -16,-2 -21,3 -4,3 -4,12 1,16 10,9 33,-1 44,5l42 147zm163 37c14,0 26,11 26,26 0,14 -12,26 -26,26 -15,0 -26,-12 -26,-26 0,-15 11,-26 26,-26zm0 17c5,0 9,4 9,9 0,5 -4,9 -9,9 -5,0 -9,-4 -9,-9 0,-5 4,-9 9,-9zm-119 -17c15,0 26,11 26,26 0,14 -11,26 -26,26 -14,0 -26,-12 -26,-26 0,-15 12,-26 26,-26zm0 17c5,0 9,4 9,9 0,5 -4,9 -9,9 -5,0 -9,-4 -9,-9 0,-5 4,-9 9,-9z"/>
   <path class="fil1" d="M279 0c51,0 92,41 92,92 0,50 -41,91 -92,91 -51,0 -92,-41 -92,-91 0,-51 41,-92 92,-92z"/>
  </g>
 </g>
</svg>
