<?xml version="1.0" encoding="UTF-8"?>
<!DOCTYPE svg PUBLIC "-//W3C//DTD SVG 1.1//EN" "http://www.w3.org/Graphics/SVG/1.1/DTD/svg11.dtd">
<!-- Creator: CorelDRAW X8 -->
<svg xmlns="http://www.w3.org/2000/svg" xml:space="preserve" width="1.41925in" height="1.42678in" version="1.1" style="shape-rendering:geometricPrecision; text-rendering:geometricPrecision; image-rendering:optimizeQuality; fill-rule:evenodd; clip-rule:evenodd"
viewBox="0 0 115 115"
 xmlns:xlink="http://www.w3.org/1999/xlink">
 <defs>
  <style type="text/css">
   <![CDATA[
    .fil1 {fill:#FEFEFE}
    .fil0 {fill:#37B5E8}
   ]]>
  </style>
 </defs>
 <g id="Layer_x0020_1">
  <metadata id="CorelCorpID_0Corel-Layer"/>
  <path class="fil0" d="M26 9c-3,1 -8,6 -10,7 -2,2 -6,7 -7,9 -1,1 -1,1 -1,2 -3,4 -5,8 -6,13 -1,5 -3,16 -1,20 1,11 6,21 13,29 4,4 5,4 7,6l1 20c1,0 15,-8 17,-9 2,-1 2,-1 4,-1 24,7 52,-4 64,-25 7,-11 9,-22 7,-35 0,-4 -3,-13 -6,-16l-1 -1c0,-2 -4,-7 -5,-8 -1,-2 -4,-4 -6,-6 -4,-3 -12,-9 -17,-10 -1,-1 -11,-3 -13,-3 -5,-1 -7,-1 -12,-1 -2,0 -2,0 -4,0 -4,1 -10,3 -13,4 -3,0 -11,4 -11,5z"/>
  <path class="fil1" d="M33 59c0,0 0,-1 1,-1l15 -16c1,-1 2,-2 3,-3 2,3 4,5 7,8 1,1 6,7 7,7 1,0 26,-14 28,-15l-9 9 0 1 -16 17c-1,1 -4,5 -5,6 -2,-1 -14,-14 -15,-15 -1,0 -6,2 -7,3 -4,2 -19,11 -20,11l10 -11 1 -1z"/>
 </g>
</svg>
