<?xml version="1.0" encoding="UTF-8"?>
<!DOCTYPE svg PUBLIC "-//W3C//DTD SVG 1.1//EN" "http://www.w3.org/Graphics/SVG/1.1/DTD/svg11.dtd">
<!-- Creator: CorelDRAW X8 -->
<svg xmlns="http://www.w3.org/2000/svg" xml:space="preserve" width="2.64373in" height="2.64247in" version="1.1" style="shape-rendering:geometricPrecision; text-rendering:geometricPrecision; image-rendering:optimizeQuality; fill-rule:evenodd; clip-rule:evenodd"
viewBox="0 0 668 668"
 xmlns:xlink="http://www.w3.org/1999/xlink">
 <defs>
  <style type="text/css">
   <![CDATA[
    .fil0 {fill:#EE0031}
   ]]>
  </style>
 </defs>
 <g id="Layer_x0020_1">
  <metadata id="CorelCorpID_0Corel-Layer"/>
  <path class="fil0" d="M382 509c-155,0 -259,-150 -211,-294 6,-20 16,-38 28,-55 4,-6 7,-11 12,-16 18,-20 28,-30 52,-45l17 -10c3,-2 6,-4 10,-5 17,-7 22,-10 41,-14 31,-8 70,-8 100,0 12,3 21,5 32,9 10,4 28,13 37,19l16 11c6,5 21,18 26,24 1,1 2,2 4,3 8,9 23,30 29,40 13,27 16,31 23,60 8,31 8,70 0,100 -1,8 -3,15 -6,22 -1,3 -2,6 -3,10 -1,3 -3,7 -4,10 -7,16 -26,45 -39,58 -2,3 -5,7 -10,11l-11 10c-2,2 -5,4 -7,6l-17 12c-21,12 -44,23 -68,28 -5,1 -8,2 -12,3 -10,2 -28,3 -39,3zm-287 -230c0,22 1,45 6,66 9,36 18,60 39,93 2,4 4,6 6,9 4,7 8,12 12,17l-158 158 46 46 158 -158c8,6 16,12 25,18l29 16c22,11 41,17 65,23 8,2 16,3 25,4 28,4 60,3 88,-3 18,-4 36,-9 54,-16 16,-6 31,-14 45,-24 2,-1 4,-2 6,-3 10,-7 21,-14 30,-23l14 -13c8,-9 16,-18 24,-28l11 -15c29,-42 48,-104 48,-154 0,-50 -7,-80 -26,-125l-6 -12c-1,-2 -2,-3 -3,-5l-20 -32c-2,-2 -2,-4 -4,-5l-12 -15c-8,-9 -17,-18 -26,-27 -9,-8 -20,-16 -30,-22 -2,-2 -3,-2 -5,-4l-34 -19c-22,-9 -43,-16 -66,-21 -29,-6 -63,-6 -92,-2 -37,5 -73,16 -105,35 -14,8 -28,18 -41,29 -9,8 -19,16 -27,25l-24 30c-2,3 -4,6 -7,10 -9,15 -17,30 -24,46 -13,30 -21,68 -21,101z"/>
 </g>
</svg>
